# xmcd CD database file
#
# Track frame offsets:
#	150
#	16832
#	31367
#	40370
#
# Disc length: 730 seconds
#
# Revision: 0
# Processed by: cddbd v1.5.1PL0 Copyright (c) Steve Scherf et al.
# Submitted via: CDex 1.51
#
DISCID=2702d804
DTITLE=Pluto - Cut and Paste
DYEAR=1900
DGENRE=Rhythmic Soul
TTITLE0=Paste
TTITLE1=Failure
TTITLE2=#17
TTITLE3=Expelled
EXTD=
EXTT0=
EXTT1=
EXTT2=
EXTT3=
PLAYORDER=
